<?xml version="1.0" encoding="UTF-8" standalone="no"?>
<!-- Created with Inkscape (http://www.inkscape.org/) -->

<svg
   xmlns:dc="http://purl.org/dc/elements/1.1/"
   xmlns:cc="http://creativecommons.org/ns#"
   xmlns:rdf="http://www.w3.org/1999/02/22-rdf-syntax-ns#"
   xmlns:svg="http://www.w3.org/2000/svg"
   xmlns="http://www.w3.org/2000/svg"
   xmlns:sodipodi="http://sodipodi.sourceforge.net/DTD/sodipodi-0.dtd"
   xmlns:inkscape="http://www.inkscape.org/namespaces/inkscape"
   width="137.70403mm"
   height="42.29488mm"
   viewBox="0 0 137.70403 42.29488"
   version="1.1"
   id="svg3474"
   inkscape:version="0.92.2 2405546, 2018-03-11"
   sodipodi:docname="bottom.svg">
  <defs
     id="defs3468" />
  <sodipodi:namedview
     id="base"
     pagecolor="#ffffff"
     bordercolor="#666666"
     borderopacity="1.0"
     inkscape:pageopacity="0.0"
     inkscape:pageshadow="2"
     inkscape:zoom="0.35"
     inkscape:cx="-304.05763"
     inkscape:cy="-365.78695"
     inkscape:document-units="mm"
     inkscape:current-layer="layer1"
     showgrid="false"
     inkscape:pagecheckerboard="true"
     fit-margin-top="0"
     fit-margin-left="0"
     fit-margin-right="0"
     fit-margin-bottom="0"
     inkscape:window-width="1920"
     inkscape:window-height="996"
     inkscape:window-x="0"
     inkscape:window-y="0"
     inkscape:window-maximized="1" />
  <metadata
     id="metadata3471">
    <rdf:RDF>
      <cc:Work
         rdf:about="">
        <dc:format>image/svg+xml</dc:format>
        <dc:type
           rdf:resource="http://purl.org/dc/dcmitype/StillImage" />
        <dc:title></dc:title>
      </cc:Work>
    </rdf:RDF>
  </metadata>
  <g
     inkscape:label="Layer 1"
     inkscape:groupmode="layer"
     id="layer1"
     transform="translate(-11.27894,-9.7573212)">
    <g
       id="g1084"
       transform="matrix(0.74750427,0,0,0.73178948,3.9955421,-111.58691)">
      <path
         style="opacity:1;fill:#31813f;fill-opacity:0.85849059;stroke:none;stroke-width:0.04274072;stroke-miterlimit:4;stroke-dasharray:none;stroke-opacity:1"
         d="m 191.82899,167.03132 c -0.1739,-0.002 -0.35994,-9.9e-4 -0.55862,9.9e-4 -1.32454,0.0196 -3.20715,0.15274 -5.74497,0.44017 -4.06049,0.45988 -9.79843,1.31421 -17.03673,2.72674 -7.23832,1.41254 -15.97761,3.3834 -25.20206,5.19015 -9.22443,1.80674 -19.10304,3.47777 -27.80213,4.71186 -8.6991,1.2341 -16.555668,2.08818 -25.338766,2.67949 -8.783108,0.59131 -18.493302,0.92012 -27.894306,0.85442 -9.401003,-0.0657 -18.493579,-0.52586 -25.996725,-1.37995 -7.503137,-0.85409 -13.417665,-2.10254 -17.478102,-3.08802 -4.060436,-0.98547 -6.267206,-1.70812 -7.418271,-1.95464 -1.151064,-0.24651 -1.246729,-0.0162 -1.294408,0.73932 -0.04766,0.75557 -0.04766,2.03656 -0.04766,7.1368 0,4.11959 0.004,10.7022 0.199178,15.69429 H 9.7730322 v 21.68131 H 193.55807 v -21.68083 c 0,0 0.15061,-21.80635 0.29595,-27.45987 0.14536,-5.65352 0.322,-6.04775 -0.78135,-6.21186 -0.31032,-0.0461 -0.72202,-0.0739 -1.24372,-0.0801 z"
         id="rect815-3-6"
         inkscape:connector-curvature="0" />
      <path
         style="opacity:1;fill:#31815c;fill-opacity:0.92156863;stroke:none;stroke-width:0.0495418;stroke-miterlimit:4;stroke-dasharray:none;stroke-opacity:1"
         d="m 11.876665,165.82027 c -0.521698,0.008 -0.933402,0.0456 -1.243717,0.10753 -1.1033359,0.22051 -0.9267116,0.75016 -0.781356,8.34607 0.1453556,7.5959 0.295953,36.89424 0.295953,36.89424 v 12.4469 H 193.93258 v -12.4469 h -0.44239 c 0.19521,-6.70723 0.19918,-15.55141 0.19918,-21.08637 0,-6.85252 4e-5,-8.57363 -0.0477,-9.58877 -0.0477,-1.01514 -0.14335,-1.32454 -1.29441,-0.99333 -1.15107,0.33121 -3.35784,1.30214 -7.41827,2.62619 -4.06045,1.32405 -9.97497,3.00144 -17.4781,4.14897 -7.50315,1.14752 -16.59572,1.76578 -25.99673,1.85406 -9.401,0.0883 -19.11119,-0.35351 -27.89429,-1.14797 -8.7831,-0.79447 -16.639678,-1.94199 -25.338774,-3.60008 -8.699094,-1.65809 -18.577688,-3.90323 -27.802135,-6.33072 -9.224438,-2.42749 -17.963742,-5.07549 -25.202058,-6.97332 -7.238293,-1.89784 -12.976245,-3.04567 -17.036731,-3.66356 -2.537829,-0.38618 -4.420433,-0.56504 -5.744963,-0.5914 -0.198684,-0.004 -0.384724,-0.004 -0.558623,-0.002 z"
         id="rect815-3-6-7"
         inkscape:connector-curvature="0" />
    </g>
  </g>
</svg>
